# Simple low-poly sphere (icosahedron)
o Sphere
v 0 0.525731 0.850651
v 0 0.525731 -0.850651
v 0 -0.525731 0.850651
v 0 -0.525731 -0.850651
v 0.850651 0 0.525731
v -0.850651 0 0.525731
v 0.850651 0 -0.525731
v -0.850651 0 -0.525731
v 0.525731 0.850651 0
v -0.525731 0.850651 0
v 0.525731 -0.850651 0
v -0.525731 -0.850651 0
f 1 9 5
f 1 5 3
f 1 3 6
f 1 6 10
f 1 10 9
f 2 7 9
f 2 9 10
f 2 10 8
f 2 8 4
f 2 4 7
f 3 5 11
f 3 11 6
f 4 8 12
f 4 12 7
f 5 9 7
f 5 7 11
f 6 11 12
f 6 12 10
f 8 10 12
f 7 12 11
f 3 2 4
f 3 4 6
f 5 2 3
f 5 7 2
